<?xml version="1.0" encoding="UTF-8"?>
<svg width="4996px" height="13959px" viewBox="0 0 4996 13959" version="1.1" xmlns="http://www.w3.org/2000/svg" xmlns:xlink="http://www.w3.org/1999/xlink">
    <!-- Generator: Sketch 53.2 (72643) - https://sketchapp.com -->
    <title>Group 9</title>
    <desc>Created with Sketch.</desc>
    <g id="Page-1" stroke="none" stroke-width="1" fill="none" fill-rule="evenodd">
        <g id="Group-9" transform="translate(-4.000000, 0.000000)">
            <g id="Group-8">
                <g id="Group-7">
                    <g id="Group-4-Copy-5">
                        <g id="Group-4-Copy-3">
                            <polygon id="Rectangle-Copy" fill-opacity="0.85" fill="#FF9B21" transform="translate(36.598632, 1681.755012) rotate(37.000000) translate(-36.598632, -1681.755012) " points="11.6080889 1656.14029 59.4124158 1658.31705 61.589175 1707.36973 13.7848481 1705.19297"></polygon>
                            <polygon id="Rectangle-Copy-6" fill-opacity="0.85" fill="#FF9B21" transform="translate(962.077342, 498.081542) rotate(37.000000) translate(-962.077342, -498.081542) " points="937.086799 472.466823 984.891126 474.643583 987.067885 523.696261 939.263558 521.519502"></polygon>
                            <polygon id="Rectangle-Copy-25" fill-opacity="0.85" fill="#FF9B21" transform="translate(104.937963, 332.841418) rotate(37.000000) translate(-104.937963, -332.841418) " points="79.9474198 307.226699 127.751747 309.403459 129.928506 358.456137 82.124179 356.279378"></polygon>
                            <polygon id="Rectangle-Copy-3" fill="#FF9B21" transform="translate(2155.496846, 1278.624397) rotate(37.000000) translate(-2155.496846, -1278.624397) " points="2137.64646 1260.32817 2171.79241 1261.883 2173.34723 1296.92063 2139.20129 1295.3658"></polygon>
                            <polygon id="Rectangle-Copy-4" fill="#FF9B21" transform="translate(2273.835430, 2003.131731) rotate(37.000000) translate(-2273.835430, -2003.131731) " points="2242.89476 1971.41827 2302.08107 1974.11331 2304.7761 2034.84519 2245.58979 2032.15016"></polygon>
                            <polygon id="Rectangle-Copy-5" fill="#FF9B21" transform="translate(3270.278400, 1479.940953) rotate(37.000000) translate(-3270.278400, -1479.940953) " points="3245.28786 1454.32623 3293.09218 1456.50299 3295.26894 1505.55567 3247.46462 1503.37891"></polygon>
                            <polygon id="Rectangle-Copy-8" fill="#FF9B21" transform="translate(3756.099766, 1879.033923) rotate(37.000000) translate(-3756.099766, -1879.033923) " points="3731.10922 1853.4192 3778.91355 1855.59596 3781.09031 1904.64864 3733.28598 1902.47188"></polygon>
                            <polygon id="Rectangle-Copy-7" fill="#FF9B21" transform="translate(822.402719, 2093.257415) rotate(37.000000) translate(-822.402719, -2093.257415) " points="790.27202 2060.32421 851.734726 2063.1229 854.533417 2126.19062 793.070711 2123.39193"></polygon>
                            <polygon id="Rectangle-Copy-23" fill="#FF9B21" transform="translate(3192.155805, 45.638368) rotate(37.000000) translate(-3192.155805, -45.638368) " points="3160.02511 12.7051579 3221.48781 15.5038483 3224.2865 78.5715774 3162.8238 75.772887"></polygon>
                            <polygon id="Rectangle-Copy-24" fill="#FF9B21" transform="translate(3348.234162, 787.134966) rotate(37.000000) translate(-3348.234162, -787.134966) " points="3316.10346 754.201757 3377.56617 757.000447 3380.36486 820.068176 3318.90215 817.269486"></polygon>
                            <polygon id="Rectangle-Copy-15" fill="#FF9B21" transform="translate(1435.724714, 993.484173) rotate(37.000000) translate(-1435.724714, -993.484173) " points="1403.59402 960.550963 1465.05672 963.349653 1467.85541 1026.41738 1406.39271 1023.61869"></polygon>
                            <path d="" id="Rectangle-Copy-16" fill="#FF9B21" transform="translate(2857.842026, 2422.196989) rotate(37.000000) translate(-2857.842026, -2422.196989) "></path>
                            <polygon id="Rectangle-Copy-17" fill="#FF9B21" transform="translate(4603.455881, 1653.348118) rotate(37.000000) translate(-4603.455881, -1653.348118) " points="4571.32518 1620.41491 4632.78789 1623.2136 4635.58658 1686.28133 4574.12387 1683.48264"></polygon>
                            <polygon id="Rectangle-Copy-18" fill="#FF9B21" transform="translate(4559.490146, 84.187120) rotate(37.000000) translate(-4559.490146, -84.187120) " points="4527.35945 51.2539107 4588.82215 54.0526011 4591.62084 117.12033 4530.15814 114.32164"></polygon>
                            <ellipse id="Oval" fill="#FF682B" cx="465.006929" cy="85.0340136" rx="36.2717309" ry="39.6825397"></ellipse>
                            <ellipse id="Oval-Copy-8" fill="#FF682B" cx="541.946964" cy="1524.94331" rx="40.6683044" ry="44.2176871"></ellipse>
                            <ellipse id="Oval-Copy-17" fill="#FF682B" cx="2065.35966" cy="629.251701" rx="40.6683044" ry="44.2176871"></ellipse>
                            <ellipse id="Oval-Copy-11" fill="#FF682B" cx="1814.75498" cy="1726.75737" rx="40.6683044" ry="44.2176871"></ellipse>
                            <ellipse id="Oval-Copy-12" fill="#FF682B" cx="2791.89342" cy="1333.33333" rx="26.3794407" ry="29.478458"></ellipse>
                            <ellipse id="Oval-Copy-13" fill="#FF682B" cx="2844.65231" cy="419.501134" rx="26.3794407" ry="29.478458"></ellipse>
                            <ellipse id="Oval-Copy-14" fill="#FF682B" cx="4724.18745" cy="1136.05442" rx="26.3794407" ry="29.478458"></ellipse>
                            <ellipse id="Oval-Copy-15" fill="#FF682B" cx="4235.06866" cy="650.793651" rx="20.8837239" ry="22.675737"></ellipse>
                            <ellipse id="Oval-Copy-16" fill="#FF682B" cx="3674.50554" cy="1205.21542" rx="36.2717309" ry="39.6825397"></ellipse>
                            <ellipse id="Oval-Copy-9" fill="#FF682B" cx="560.632401" cy="885.487528" rx="21.9828672" ry="23.8095238"></ellipse>
                            <ellipse id="Oval-Copy-10" fill="#FF682B" cx="2046.67423" cy="60.0907029" rx="21.9828672" ry="23.8095238"></ellipse>
                            <polygon id="Rectangle-Copy-9" fill="#E4E4E4" transform="translate(1287.190352, 1569.105485) rotate(-30.000000) translate(-1287.190352, -1569.105485) " points="1239.3283 1556.95306 1336.17303 1552.93748 1335.0524 1581.25791 1238.20768 1585.27349"></polygon>
                            <polygon id="Rectangle-Copy-10" fill-opacity="0.9" fill="#E4E4E4" transform="translate(154.188786, 791.139583) rotate(50.000000) translate(-154.188786, -791.139583) " points="91.8768816 773.171449 215.093618 778.799743 216.500691 809.107717 93.2839551 803.479423"></polygon>
                            <polygon id="Rectangle-Copy-11" fill-opacity="0.8" fill="#E4E4E4" transform="translate(666.980280, 1204.842569) rotate(-76.000000) translate(-666.980280, -1204.842569) " points="609.652116 1192.7921 724.915936 1190.36213 724.308444 1216.89304 609.044625 1219.323"></polygon>
                            <polygon id="Rectangle-Copy-12" fill="#E4E4E4" transform="translate(2973.142610, 1959.269008) rotate(39.000000) translate(-2973.142610, -1959.269008) " points="2921.12651 1942.92456 3023.89299 1947.67099 3025.15871 1975.61345 2922.39223 1970.86703"></polygon>
                            <polygon id="Rectangle-Copy-13" fill="#E4E4E4" transform="translate(1342.345272, 207.193339) rotate(13.000000) translate(-1342.345272, -207.193339) " points="1294.56385 191.758791 1389.55945 193.791428 1390.1267 222.627888 1295.1311 220.595251"></polygon>
                            <polygon id="Rectangle-Copy-20" fill="#E4E4E4" transform="translate(3952.612519, 167.666534) rotate(26.000000) translate(-3952.612519, -167.666534) " points="3898.34914 151.392135 4005.85622 155.470845 4006.8759 183.940934 3899.36882 179.862224"></polygon>
                            <polygon id="Rectangle-Copy-21" fill="#E4E4E4" transform="translate(4306.471374, 1038.766311) rotate(-43.000000) translate(-4306.471374, -1038.766311) " points="4251.95046 1027.46614 4362.28312 1022.30279 4360.99229 1050.06648 4250.65962 1055.22983"></polygon>
                            <polygon id="Rectangle-Copy-26" fill="#E4E4E4" transform="translate(2763.339402, 793.516875) rotate(26.000000) translate(-2763.339402, -793.516875) " points="2709.07602 777.242475 2816.5831 781.321185 2817.60278 809.791274 2710.0957 805.712564"></polygon>
                        </g>
                    </g>
                    <g id="Group-4-Copy-6" transform="translate(102.040816, 2335.600907)">
                        <g id="Group-4-Copy-3">
                            <polygon id="Rectangle-Copy" fill-opacity="0.85" fill="#FF9B21" transform="translate(35.413126, 1681.755012) rotate(37.000000) translate(-35.413126, -1681.755012) " points="10.3082267 1656.22647 59.0405966 1657.7039 60.5180252 1707.28356 11.7856553 1705.80613"></polygon>
                            <polygon id="Rectangle-Copy-6" fill-opacity="0.85" fill="#FF9B21" transform="translate(990.061652, 498.081542) rotate(37.000000) translate(-990.061652, -498.081542) " points="964.956753 472.552997 1013.68912 474.030426 1015.16655 523.610087 966.434181 522.132659"></polygon>
                            <polygon id="Rectangle-Copy-25" fill-opacity="0.85" fill="#FF9B21" transform="translate(105.906419, 332.841418) rotate(37.000000) translate(-105.906419, -332.841418) " points="80.8015193 307.312873 129.533889 308.790302 131.011318 358.369963 82.2789479 356.892535"></polygon>
                            <polygon id="Rectangle-Copy-3" fill="#FF9B21" transform="translate(2221.096098, 1278.624397) rotate(37.000000) translate(-2221.096098, -1278.624397) " points="2203.16403 1260.38972 2237.97286 1261.44503 2239.02817 1296.85907 2204.21933 1295.80377"></polygon>
                            <polygon id="Rectangle-Copy-4" fill="#FF9B21" transform="translate(2343.164551, 2003.131731) rotate(37.000000) translate(-2343.164551, -2003.131731) " points="2312.08229 1971.52496 2372.41761 1973.35416 2374.24681 2034.7385 2313.91149 2032.9093"></polygon>
                            <polygon id="Rectangle-Copy-5" fill="#FF9B21" transform="translate(3371.014033, 1479.940953) rotate(37.000000) translate(-3371.014033, -1479.940953) " points="3345.90913 1454.41241 3394.6415 1455.88984 3396.11893 1505.4695 3347.38656 1503.99207"></polygon>
                            <polygon id="Rectangle-Copy-8" fill="#FF9B21" transform="translate(3872.147820, 1879.033923) rotate(37.000000) translate(-3872.147820, -1879.033923) " points="3847.04292 1853.50538 3895.77529 1854.98281 3897.25272 1904.56247 3848.52035 1903.08504"></polygon>
                            <polygon id="Rectangle-Copy-7" fill="#FF9B21" transform="translate(845.984677, 2093.257415) rotate(37.000000) translate(-845.984677, -2093.257415) " points="813.706949 2060.435 876.362853 2062.33455 878.262404 2126.07983 815.6065 2124.18028"></polygon>
                            <polygon id="Rectangle-Copy-23" fill="#FF9B21" transform="translate(3290.429121, 45.638368) rotate(37.000000) translate(-3290.429121, -45.638368) " points="3258.15139 12.8159525 3320.8073 14.7155036 3322.70685 78.4607827 3260.05094 76.5612317"></polygon>
                            <polygon id="Rectangle-Copy-24" fill="#FF9B21" transform="translate(3451.426854, 787.134966) rotate(37.000000) translate(-3451.426854, -787.134966) " points="3419.14913 754.312551 3481.80503 756.212102 3483.70458 819.957381 3421.04868 818.05783"></polygon>
                            <polygon id="Rectangle-Copy-15" fill="#FF9B21" transform="translate(1478.637738, 993.484173) rotate(37.000000) translate(-1478.637738, -993.484173) " points="1446.36001 960.661758 1509.01591 962.561309 1510.91547 1026.30659 1448.25956 1024.40704"></polygon>
                            <path d="" id="Rectangle-Copy-16" fill="#FF9B21" transform="translate(2945.578231, 2422.196989) rotate(37.000000) translate(-2945.578231, -2422.196989) "></path>
                            <polygon id="Rectangle-Copy-17" fill="#FF9B21" transform="translate(4746.211434, 1653.348118) rotate(37.000000) translate(-4746.211434, -1653.348118) " points="4713.93371 1620.5257 4776.58961 1622.42525 4778.48916 1686.17053 4715.83326 1684.27098"></polygon>
                            <polygon id="Rectangle-Copy-18" fill="#FF9B21" transform="translate(4700.859960, 84.187120) rotate(37.000000) translate(-4700.859960, -84.187120) " points="4668.58223 51.3647053 4731.23814 53.2642564 4733.13769 117.009536 4670.48178 115.109985"></polygon>
                            <ellipse id="Oval" fill="#FF682B" cx="477.324263" cy="85.0340136" rx="37.414966" ry="39.6825397"></ellipse>
                            <ellipse id="Oval-Copy-8" fill="#FF682B" cx="556.689342" cy="1524.94331" rx="41.9501134" ry="44.2176871"></ellipse>
                            <ellipse id="Oval-Copy-17" fill="#FF682B" cx="2128.11791" cy="629.251701" rx="41.9501134" ry="44.2176871"></ellipse>
                            <ellipse id="Oval-Copy-11" fill="#FF682B" cx="1869.61451" cy="1726.75737" rx="41.9501134" ry="44.2176871"></ellipse>
                            <ellipse id="Oval-Copy-12" fill="#FF682B" cx="2877.55102" cy="1333.33333" rx="27.2108844" ry="29.478458"></ellipse>
                            <ellipse id="Oval-Copy-13" fill="#FF682B" cx="2931.97279" cy="419.501134" rx="27.2108844" ry="29.478458"></ellipse>
                            <ellipse id="Oval-Copy-14" fill="#FF682B" cx="4870.7483" cy="1136.05442" rx="27.2108844" ry="29.478458"></ellipse>
                            <ellipse id="Oval-Copy-15" fill="#FF682B" cx="4366.21315" cy="650.793651" rx="21.5419501" ry="22.675737"></ellipse>
                            <ellipse id="Oval-Copy-16" fill="#FF682B" cx="3787.98186" cy="1205.21542" rx="37.414966" ry="39.6825397"></ellipse>
                            <ellipse id="Oval-Copy-9" fill="#FF682B" cx="575.963719" cy="885.487528" rx="22.675737" ry="23.8095238"></ellipse>
                            <ellipse id="Oval-Copy-10" fill="#FF682B" cx="2108.84354" cy="60.0907029" rx="22.675737" ry="23.8095238"></ellipse>
                            <polygon id="Rectangle-Copy-9" fill="#E4E4E4" transform="translate(1325.421777, 1569.105485) rotate(-30.000000) translate(-1325.421777, -1569.105485) " points="1276.26246 1556.20409 1375.34169 1553.4786 1374.58109 1582.00688 1275.50186 1584.73237"></polygon>
                            <polygon id="Rectangle-Copy-10" fill-opacity="0.9" fill="#E4E4E4" transform="translate(156.709560, 791.139583) rotate(50.000000) translate(-156.709560, -791.139583) " points="93.8650475 773.806186 218.599052 777.62627 219.554073 808.472979 94.8200685 804.652895"></polygon>
                            <polygon id="Rectangle-Copy-11" fill-opacity="0.8" fill="#E4E4E4" transform="translate(685.663537, 1204.842569) rotate(-76.000000) translate(-685.663537, -1204.842569) " points="628.140466 1192.01037 743.59893 1190.36108 743.186608 1217.67477 627.728144 1219.32406"></polygon>
                            <polygon id="Rectangle-Copy-12" fill="#E4E4E4" transform="translate(3064.512931, 1959.269008) rotate(39.000000) translate(-3064.512931, -1959.269008) " points="3011.75861 1943.52236 3116.40817 1946.7439 3117.26725 1975.01565 3012.61769 1971.79412"></polygon>
                            <polygon id="Rectangle-Copy-13" fill="#E4E4E4" transform="translate(1382.315105, 207.193339) rotate(13.000000) translate(-1382.315105, -207.193339) " points="1333.21051 192.064268 1431.03469 193.443877 1431.4197 222.322411 1333.59552 220.942802"></polygon>
                            <polygon id="Rectangle-Copy-20" fill="#E4E4E4" transform="translate(4074.854385, 167.666534) rotate(26.000000) translate(-4074.854385, -167.666534) " points="4019.41147 151.967432 4129.60522 154.735769 4130.2973 183.365637 4020.10355 180.5973"></polygon>
                            <polygon id="Rectangle-Copy-21" fill="#E4E4E4" transform="translate(4439.866384, 1038.766311) rotate(-43.000000) translate(-4439.866384, -1038.766311) " points="4384.24867 1026.44336 4496.36022 1022.93885 4495.48409 1051.08926 4383.37255 1054.59378"></polygon>
                            <polygon id="Rectangle-Copy-26" fill="#E4E4E4" transform="translate(2848.097015, 793.516875) rotate(26.000000) translate(-2848.097015, -793.516875) " points="2792.6541 777.817772 2902.84785 780.586109 2903.53993 809.215977 2793.34618 806.44764"></polygon>
                        </g>
                    </g>
                    <g id="Group-4-Copy-7" transform="translate(102.040816, 4759.637188)">
                        <g id="Group-4-Copy-3">
                            <polygon id="Rectangle-Copy" fill-opacity="0.85" fill="#FF9B21" transform="translate(35.413126, 1681.755012) rotate(37.000000) translate(-35.413126, -1681.755012) " points="10.3082267 1656.22647 59.0405966 1657.7039 60.5180252 1707.28356 11.7856553 1705.80613"></polygon>
                            <polygon id="Rectangle-Copy-6" fill-opacity="0.85" fill="#FF9B21" transform="translate(990.061652, 498.081542) rotate(37.000000) translate(-990.061652, -498.081542) " points="964.956753 472.552997 1013.68912 474.030426 1015.16655 523.610087 966.434181 522.132659"></polygon>
                            <polygon id="Rectangle-Copy-25" fill-opacity="0.85" fill="#FF9B21" transform="translate(105.906419, 332.841418) rotate(37.000000) translate(-105.906419, -332.841418) " points="80.8015193 307.312873 129.533889 308.790302 131.011318 358.369963 82.2789479 356.892535"></polygon>
                            <polygon id="Rectangle-Copy-3" fill="#FF9B21" transform="translate(2221.096098, 1278.624397) rotate(37.000000) translate(-2221.096098, -1278.624397) " points="2203.16403 1260.38972 2237.97286 1261.44503 2239.02817 1296.85907 2204.21933 1295.80377"></polygon>
                            <polygon id="Rectangle-Copy-4" fill="#FF9B21" transform="translate(2343.164551, 2003.131731) rotate(37.000000) translate(-2343.164551, -2003.131731) " points="2312.08229 1971.52496 2372.41761 1973.35416 2374.24681 2034.7385 2313.91149 2032.9093"></polygon>
                            <polygon id="Rectangle-Copy-5" fill="#FF9B21" transform="translate(3371.014033, 1479.940953) rotate(37.000000) translate(-3371.014033, -1479.940953) " points="3345.90913 1454.41241 3394.6415 1455.88984 3396.11893 1505.4695 3347.38656 1503.99207"></polygon>
                            <polygon id="Rectangle-Copy-8" fill="#FF9B21" transform="translate(3872.147820, 1879.033923) rotate(37.000000) translate(-3872.147820, -1879.033923) " points="3847.04292 1853.50538 3895.77529 1854.98281 3897.25272 1904.56247 3848.52035 1903.08504"></polygon>
                            <polygon id="Rectangle-Copy-7" fill="#FF9B21" transform="translate(845.984677, 2093.257415) rotate(37.000000) translate(-845.984677, -2093.257415) " points="813.706949 2060.435 876.362853 2062.33455 878.262404 2126.07983 815.6065 2124.18028"></polygon>
                            <polygon id="Rectangle-Copy-23" fill="#FF9B21" transform="translate(3290.429121, 45.638368) rotate(37.000000) translate(-3290.429121, -45.638368) " points="3258.15139 12.8159525 3320.8073 14.7155036 3322.70685 78.4607827 3260.05094 76.5612317"></polygon>
                            <polygon id="Rectangle-Copy-24" fill="#FF9B21" transform="translate(3451.426854, 787.134966) rotate(37.000000) translate(-3451.426854, -787.134966) " points="3419.14913 754.312551 3481.80503 756.212102 3483.70458 819.957381 3421.04868 818.05783"></polygon>
                            <polygon id="Rectangle-Copy-15" fill="#FF9B21" transform="translate(1478.637738, 993.484173) rotate(37.000000) translate(-1478.637738, -993.484173) " points="1446.36001 960.661758 1509.01591 962.561309 1510.91547 1026.30659 1448.25956 1024.40704"></polygon>
                            <path d="" id="Rectangle-Copy-16" fill="#FF9B21" transform="translate(2945.578231, 2422.196989) rotate(37.000000) translate(-2945.578231, -2422.196989) "></path>
                            <polygon id="Rectangle-Copy-17" fill="#FF9B21" transform="translate(4746.211434, 1653.348118) rotate(37.000000) translate(-4746.211434, -1653.348118) " points="4713.93371 1620.5257 4776.58961 1622.42525 4778.48916 1686.17053 4715.83326 1684.27098"></polygon>
                            <polygon id="Rectangle-Copy-18" fill="#FF9B21" transform="translate(4700.859960, 84.187120) rotate(37.000000) translate(-4700.859960, -84.187120) " points="4668.58223 51.3647053 4731.23814 53.2642564 4733.13769 117.009536 4670.48178 115.109985"></polygon>
                            <ellipse id="Oval" fill="#FF682B" cx="477.324263" cy="85.0340136" rx="37.414966" ry="39.6825397"></ellipse>
                            <ellipse id="Oval-Copy-8" fill="#FF682B" cx="556.689342" cy="1524.94331" rx="41.9501134" ry="44.2176871"></ellipse>
                            <ellipse id="Oval-Copy-17" fill="#FF682B" cx="2128.11791" cy="629.251701" rx="41.9501134" ry="44.2176871"></ellipse>
                            <ellipse id="Oval-Copy-11" fill="#FF682B" cx="1869.61451" cy="1726.75737" rx="41.9501134" ry="44.2176871"></ellipse>
                            <ellipse id="Oval-Copy-12" fill="#FF682B" cx="2877.55102" cy="1333.33333" rx="27.2108844" ry="29.478458"></ellipse>
                            <ellipse id="Oval-Copy-13" fill="#FF682B" cx="2931.97279" cy="419.501134" rx="27.2108844" ry="29.478458"></ellipse>
                            <ellipse id="Oval-Copy-14" fill="#FF682B" cx="4870.7483" cy="1136.05442" rx="27.2108844" ry="29.478458"></ellipse>
                            <ellipse id="Oval-Copy-15" fill="#FF682B" cx="4366.21315" cy="650.793651" rx="21.5419501" ry="22.675737"></ellipse>
                            <ellipse id="Oval-Copy-16" fill="#FF682B" cx="3787.98186" cy="1205.21542" rx="37.414966" ry="39.6825397"></ellipse>
                            <ellipse id="Oval-Copy-9" fill="#FF682B" cx="575.963719" cy="885.487528" rx="22.675737" ry="23.8095238"></ellipse>
                            <ellipse id="Oval-Copy-10" fill="#FF682B" cx="2108.84354" cy="60.0907029" rx="22.675737" ry="23.8095238"></ellipse>
                            <polygon id="Rectangle-Copy-9" fill="#E4E4E4" transform="translate(1325.421777, 1569.105485) rotate(-30.000000) translate(-1325.421777, -1569.105485) " points="1276.26246 1556.20409 1375.34169 1553.4786 1374.58109 1582.00688 1275.50186 1584.73237"></polygon>
                            <polygon id="Rectangle-Copy-10" fill-opacity="0.9" fill="#E4E4E4" transform="translate(156.709560, 791.139583) rotate(50.000000) translate(-156.709560, -791.139583) " points="93.8650475 773.806186 218.599052 777.62627 219.554073 808.472979 94.8200685 804.652895"></polygon>
                            <polygon id="Rectangle-Copy-11" fill-opacity="0.8" fill="#E4E4E4" transform="translate(685.663537, 1204.842569) rotate(-76.000000) translate(-685.663537, -1204.842569) " points="628.140466 1192.01037 743.59893 1190.36108 743.186608 1217.67477 627.728144 1219.32406"></polygon>
                            <polygon id="Rectangle-Copy-12" fill="#E4E4E4" transform="translate(3064.512931, 1959.269008) rotate(39.000000) translate(-3064.512931, -1959.269008) " points="3011.75861 1943.52236 3116.40817 1946.7439 3117.26725 1975.01565 3012.61769 1971.79412"></polygon>
                            <polygon id="Rectangle-Copy-13" fill="#E4E4E4" transform="translate(1382.315105, 207.193339) rotate(13.000000) translate(-1382.315105, -207.193339) " points="1333.21051 192.064268 1431.03469 193.443877 1431.4197 222.322411 1333.59552 220.942802"></polygon>
                            <polygon id="Rectangle-Copy-20" fill="#E4E4E4" transform="translate(4074.854385, 167.666534) rotate(26.000000) translate(-4074.854385, -167.666534) " points="4019.41147 151.967432 4129.60522 154.735769 4130.2973 183.365637 4020.10355 180.5973"></polygon>
                            <polygon id="Rectangle-Copy-21" fill="#E4E4E4" transform="translate(4439.866384, 1038.766311) rotate(-43.000000) translate(-4439.866384, -1038.766311) " points="4384.24867 1026.44336 4496.36022 1022.93885 4495.48409 1051.08926 4383.37255 1054.59378"></polygon>
                            <polygon id="Rectangle-Copy-26" fill="#E4E4E4" transform="translate(2848.097015, 793.516875) rotate(26.000000) translate(-2848.097015, -793.516875) " points="2792.6541 777.817772 2902.84785 780.586109 2903.53993 809.215977 2793.34618 806.44764"></polygon>
                        </g>
                    </g>
                </g>
                <g id="Group-7" transform="translate(0.000000, 7060.000000)">
                    <g id="Group-4-Copy-5">
                        <g id="Group-4-Copy-3">
                            <polygon id="Rectangle-Copy" fill-opacity="0.85" fill="#FF9B21" transform="translate(36.598632, 1681.755012) rotate(37.000000) translate(-36.598632, -1681.755012) " points="11.6080889 1656.14029 59.4124158 1658.31705 61.589175 1707.36973 13.7848481 1705.19297"></polygon>
                            <polygon id="Rectangle-Copy-6" fill-opacity="0.85" fill="#FF9B21" transform="translate(962.077342, 498.081542) rotate(37.000000) translate(-962.077342, -498.081542) " points="937.086799 472.466823 984.891126 474.643583 987.067885 523.696261 939.263558 521.519502"></polygon>
                            <polygon id="Rectangle-Copy-25" fill-opacity="0.85" fill="#FF9B21" transform="translate(104.937963, 332.841418) rotate(37.000000) translate(-104.937963, -332.841418) " points="79.9474198 307.226699 127.751747 309.403459 129.928506 358.456137 82.124179 356.279378"></polygon>
                            <polygon id="Rectangle-Copy-3" fill="#FF9B21" transform="translate(2155.496846, 1278.624397) rotate(37.000000) translate(-2155.496846, -1278.624397) " points="2137.64646 1260.32817 2171.79241 1261.883 2173.34723 1296.92063 2139.20129 1295.3658"></polygon>
                            <polygon id="Rectangle-Copy-4" fill="#FF9B21" transform="translate(2273.835430, 2003.131731) rotate(37.000000) translate(-2273.835430, -2003.131731) " points="2242.89476 1971.41827 2302.08107 1974.11331 2304.7761 2034.84519 2245.58979 2032.15016"></polygon>
                            <polygon id="Rectangle-Copy-5" fill="#FF9B21" transform="translate(3270.278400, 1479.940953) rotate(37.000000) translate(-3270.278400, -1479.940953) " points="3245.28786 1454.32623 3293.09218 1456.50299 3295.26894 1505.55567 3247.46462 1503.37891"></polygon>
                            <polygon id="Rectangle-Copy-8" fill="#FF9B21" transform="translate(3756.099766, 1879.033923) rotate(37.000000) translate(-3756.099766, -1879.033923) " points="3731.10922 1853.4192 3778.91355 1855.59596 3781.09031 1904.64864 3733.28598 1902.47188"></polygon>
                            <polygon id="Rectangle-Copy-7" fill="#FF9B21" transform="translate(822.402719, 2093.257415) rotate(37.000000) translate(-822.402719, -2093.257415) " points="790.27202 2060.32421 851.734726 2063.1229 854.533417 2126.19062 793.070711 2123.39193"></polygon>
                            <polygon id="Rectangle-Copy-23" fill="#FF9B21" transform="translate(3192.155805, 45.638368) rotate(37.000000) translate(-3192.155805, -45.638368) " points="3160.02511 12.7051579 3221.48781 15.5038483 3224.2865 78.5715774 3162.8238 75.772887"></polygon>
                            <polygon id="Rectangle-Copy-24" fill="#FF9B21" transform="translate(3348.234162, 787.134966) rotate(37.000000) translate(-3348.234162, -787.134966) " points="3316.10346 754.201757 3377.56617 757.000447 3380.36486 820.068176 3318.90215 817.269486"></polygon>
                            <polygon id="Rectangle-Copy-15" fill="#FF9B21" transform="translate(1435.724714, 993.484173) rotate(37.000000) translate(-1435.724714, -993.484173) " points="1403.59402 960.550963 1465.05672 963.349653 1467.85541 1026.41738 1406.39271 1023.61869"></polygon>
                            <path d="" id="Rectangle-Copy-16" fill="#FF9B21" transform="translate(2857.842026, 2422.196989) rotate(37.000000) translate(-2857.842026, -2422.196989) "></path>
                            <polygon id="Rectangle-Copy-17" fill="#FF9B21" transform="translate(4603.455881, 1653.348118) rotate(37.000000) translate(-4603.455881, -1653.348118) " points="4571.32518 1620.41491 4632.78789 1623.2136 4635.58658 1686.28133 4574.12387 1683.48264"></polygon>
                            <polygon id="Rectangle-Copy-18" fill="#FF9B21" transform="translate(4559.490146, 84.187120) rotate(37.000000) translate(-4559.490146, -84.187120) " points="4527.35945 51.2539107 4588.82215 54.0526011 4591.62084 117.12033 4530.15814 114.32164"></polygon>
                            <ellipse id="Oval" fill="#FF682B" cx="465.006929" cy="85.0340136" rx="36.2717309" ry="39.6825397"></ellipse>
                            <ellipse id="Oval-Copy-8" fill="#FF682B" cx="541.946964" cy="1524.94331" rx="40.6683044" ry="44.2176871"></ellipse>
                            <ellipse id="Oval-Copy-17" fill="#FF682B" cx="2065.35966" cy="629.251701" rx="40.6683044" ry="44.2176871"></ellipse>
                            <ellipse id="Oval-Copy-11" fill="#FF682B" cx="1814.75498" cy="1726.75737" rx="40.6683044" ry="44.2176871"></ellipse>
                            <ellipse id="Oval-Copy-12" fill="#FF682B" cx="2791.89342" cy="1333.33333" rx="26.3794407" ry="29.478458"></ellipse>
                            <ellipse id="Oval-Copy-13" fill="#FF682B" cx="2844.65231" cy="419.501134" rx="26.3794407" ry="29.478458"></ellipse>
                            <ellipse id="Oval-Copy-14" fill="#FF682B" cx="4724.18745" cy="1136.05442" rx="26.3794407" ry="29.478458"></ellipse>
                            <ellipse id="Oval-Copy-15" fill="#FF682B" cx="4235.06866" cy="650.793651" rx="20.8837239" ry="22.675737"></ellipse>
                            <ellipse id="Oval-Copy-16" fill="#FF682B" cx="3674.50554" cy="1205.21542" rx="36.2717309" ry="39.6825397"></ellipse>
                            <ellipse id="Oval-Copy-9" fill="#FF682B" cx="560.632401" cy="885.487528" rx="21.9828672" ry="23.8095238"></ellipse>
                            <ellipse id="Oval-Copy-10" fill="#FF682B" cx="2046.67423" cy="60.0907029" rx="21.9828672" ry="23.8095238"></ellipse>
                            <polygon id="Rectangle-Copy-9" fill="#E4E4E4" transform="translate(1287.190352, 1569.105485) rotate(-30.000000) translate(-1287.190352, -1569.105485) " points="1239.3283 1556.95306 1336.17303 1552.93748 1335.0524 1581.25791 1238.20768 1585.27349"></polygon>
                            <polygon id="Rectangle-Copy-10" fill-opacity="0.9" fill="#E4E4E4" transform="translate(154.188786, 791.139583) rotate(50.000000) translate(-154.188786, -791.139583) " points="91.8768816 773.171449 215.093618 778.799743 216.500691 809.107717 93.2839551 803.479423"></polygon>
                            <polygon id="Rectangle-Copy-11" fill-opacity="0.8" fill="#E4E4E4" transform="translate(666.980280, 1204.842569) rotate(-76.000000) translate(-666.980280, -1204.842569) " points="609.652116 1192.7921 724.915936 1190.36213 724.308444 1216.89304 609.044625 1219.323"></polygon>
                            <polygon id="Rectangle-Copy-12" fill="#E4E4E4" transform="translate(2973.142610, 1959.269008) rotate(39.000000) translate(-2973.142610, -1959.269008) " points="2921.12651 1942.92456 3023.89299 1947.67099 3025.15871 1975.61345 2922.39223 1970.86703"></polygon>
                            <polygon id="Rectangle-Copy-13" fill="#E4E4E4" transform="translate(1342.345272, 207.193339) rotate(13.000000) translate(-1342.345272, -207.193339) " points="1294.56385 191.758791 1389.55945 193.791428 1390.1267 222.627888 1295.1311 220.595251"></polygon>
                            <polygon id="Rectangle-Copy-20" fill="#E4E4E4" transform="translate(3952.612519, 167.666534) rotate(26.000000) translate(-3952.612519, -167.666534) " points="3898.34914 151.392135 4005.85622 155.470845 4006.8759 183.940934 3899.36882 179.862224"></polygon>
                            <polygon id="Rectangle-Copy-21" fill="#E4E4E4" transform="translate(4306.471374, 1038.766311) rotate(-43.000000) translate(-4306.471374, -1038.766311) " points="4251.95046 1027.46614 4362.28312 1022.30279 4360.99229 1050.06648 4250.65962 1055.22983"></polygon>
                            <polygon id="Rectangle-Copy-26" fill="#E4E4E4" transform="translate(2763.339402, 793.516875) rotate(26.000000) translate(-2763.339402, -793.516875) " points="2709.07602 777.242475 2816.5831 781.321185 2817.60278 809.791274 2710.0957 805.712564"></polygon>
                        </g>
                    </g>
                    <g id="Group-4-Copy-6" transform="translate(102.040816, 2335.600907)">
                        <g id="Group-4-Copy-3">
                            <polygon id="Rectangle-Copy" fill-opacity="0.85" fill="#FF9B21" transform="translate(35.413126, 1681.755012) rotate(37.000000) translate(-35.413126, -1681.755012) " points="10.3082267 1656.22647 59.0405966 1657.7039 60.5180252 1707.28356 11.7856553 1705.80613"></polygon>
                            <polygon id="Rectangle-Copy-6" fill-opacity="0.85" fill="#FF9B21" transform="translate(990.061652, 498.081542) rotate(37.000000) translate(-990.061652, -498.081542) " points="964.956753 472.552997 1013.68912 474.030426 1015.16655 523.610087 966.434181 522.132659"></polygon>
                            <polygon id="Rectangle-Copy-25" fill-opacity="0.85" fill="#FF9B21" transform="translate(105.906419, 332.841418) rotate(37.000000) translate(-105.906419, -332.841418) " points="80.8015193 307.312873 129.533889 308.790302 131.011318 358.369963 82.2789479 356.892535"></polygon>
                            <polygon id="Rectangle-Copy-3" fill="#FF9B21" transform="translate(2221.096098, 1278.624397) rotate(37.000000) translate(-2221.096098, -1278.624397) " points="2203.16403 1260.38972 2237.97286 1261.44503 2239.02817 1296.85907 2204.21933 1295.80377"></polygon>
                            <polygon id="Rectangle-Copy-4" fill="#FF9B21" transform="translate(2343.164551, 2003.131731) rotate(37.000000) translate(-2343.164551, -2003.131731) " points="2312.08229 1971.52496 2372.41761 1973.35416 2374.24681 2034.7385 2313.91149 2032.9093"></polygon>
                            <polygon id="Rectangle-Copy-5" fill="#FF9B21" transform="translate(3371.014033, 1479.940953) rotate(37.000000) translate(-3371.014033, -1479.940953) " points="3345.90913 1454.41241 3394.6415 1455.88984 3396.11893 1505.4695 3347.38656 1503.99207"></polygon>
                            <polygon id="Rectangle-Copy-8" fill="#FF9B21" transform="translate(3872.147820, 1879.033923) rotate(37.000000) translate(-3872.147820, -1879.033923) " points="3847.04292 1853.50538 3895.77529 1854.98281 3897.25272 1904.56247 3848.52035 1903.08504"></polygon>
                            <polygon id="Rectangle-Copy-7" fill="#FF9B21" transform="translate(845.984677, 2093.257415) rotate(37.000000) translate(-845.984677, -2093.257415) " points="813.706949 2060.435 876.362853 2062.33455 878.262404 2126.07983 815.6065 2124.18028"></polygon>
                            <polygon id="Rectangle-Copy-23" fill="#FF9B21" transform="translate(3290.429121, 45.638368) rotate(37.000000) translate(-3290.429121, -45.638368) " points="3258.15139 12.8159525 3320.8073 14.7155036 3322.70685 78.4607827 3260.05094 76.5612317"></polygon>
                            <polygon id="Rectangle-Copy-24" fill="#FF9B21" transform="translate(3451.426854, 787.134966) rotate(37.000000) translate(-3451.426854, -787.134966) " points="3419.14913 754.312551 3481.80503 756.212102 3483.70458 819.957381 3421.04868 818.05783"></polygon>
                            <polygon id="Rectangle-Copy-15" fill="#FF9B21" transform="translate(1478.637738, 993.484173) rotate(37.000000) translate(-1478.637738, -993.484173) " points="1446.36001 960.661758 1509.01591 962.561309 1510.91547 1026.30659 1448.25956 1024.40704"></polygon>
                            <path d="" id="Rectangle-Copy-16" fill="#FF9B21" transform="translate(2945.578231, 2422.196989) rotate(37.000000) translate(-2945.578231, -2422.196989) "></path>
                            <polygon id="Rectangle-Copy-17" fill="#FF9B21" transform="translate(4746.211434, 1653.348118) rotate(37.000000) translate(-4746.211434, -1653.348118) " points="4713.93371 1620.5257 4776.58961 1622.42525 4778.48916 1686.17053 4715.83326 1684.27098"></polygon>
                            <polygon id="Rectangle-Copy-18" fill="#FF9B21" transform="translate(4700.859960, 84.187120) rotate(37.000000) translate(-4700.859960, -84.187120) " points="4668.58223 51.3647053 4731.23814 53.2642564 4733.13769 117.009536 4670.48178 115.109985"></polygon>
                            <ellipse id="Oval" fill="#FF682B" cx="477.324263" cy="85.0340136" rx="37.414966" ry="39.6825397"></ellipse>
                            <ellipse id="Oval-Copy-8" fill="#FF682B" cx="556.689342" cy="1524.94331" rx="41.9501134" ry="44.2176871"></ellipse>
                            <ellipse id="Oval-Copy-17" fill="#FF682B" cx="2128.11791" cy="629.251701" rx="41.9501134" ry="44.2176871"></ellipse>
                            <ellipse id="Oval-Copy-11" fill="#FF682B" cx="1869.61451" cy="1726.75737" rx="41.9501134" ry="44.2176871"></ellipse>
                            <ellipse id="Oval-Copy-12" fill="#FF682B" cx="2877.55102" cy="1333.33333" rx="27.2108844" ry="29.478458"></ellipse>
                            <ellipse id="Oval-Copy-13" fill="#FF682B" cx="2931.97279" cy="419.501134" rx="27.2108844" ry="29.478458"></ellipse>
                            <ellipse id="Oval-Copy-14" fill="#FF682B" cx="4870.7483" cy="1136.05442" rx="27.2108844" ry="29.478458"></ellipse>
                            <ellipse id="Oval-Copy-15" fill="#FF682B" cx="4366.21315" cy="650.793651" rx="21.5419501" ry="22.675737"></ellipse>
                            <ellipse id="Oval-Copy-16" fill="#FF682B" cx="3787.98186" cy="1205.21542" rx="37.414966" ry="39.6825397"></ellipse>
                            <ellipse id="Oval-Copy-9" fill="#FF682B" cx="575.963719" cy="885.487528" rx="22.675737" ry="23.8095238"></ellipse>
                            <ellipse id="Oval-Copy-10" fill="#FF682B" cx="2108.84354" cy="60.0907029" rx="22.675737" ry="23.8095238"></ellipse>
                            <polygon id="Rectangle-Copy-9" fill="#E4E4E4" transform="translate(1325.421777, 1569.105485) rotate(-30.000000) translate(-1325.421777, -1569.105485) " points="1276.26246 1556.20409 1375.34169 1553.4786 1374.58109 1582.00688 1275.50186 1584.73237"></polygon>
                            <polygon id="Rectangle-Copy-10" fill-opacity="0.9" fill="#E4E4E4" transform="translate(156.709560, 791.139583) rotate(50.000000) translate(-156.709560, -791.139583) " points="93.8650475 773.806186 218.599052 777.62627 219.554073 808.472979 94.8200685 804.652895"></polygon>
                            <polygon id="Rectangle-Copy-11" fill-opacity="0.8" fill="#E4E4E4" transform="translate(685.663537, 1204.842569) rotate(-76.000000) translate(-685.663537, -1204.842569) " points="628.140466 1192.01037 743.59893 1190.36108 743.186608 1217.67477 627.728144 1219.32406"></polygon>
                            <polygon id="Rectangle-Copy-12" fill="#E4E4E4" transform="translate(3064.512931, 1959.269008) rotate(39.000000) translate(-3064.512931, -1959.269008) " points="3011.75861 1943.52236 3116.40817 1946.7439 3117.26725 1975.01565 3012.61769 1971.79412"></polygon>
                            <polygon id="Rectangle-Copy-13" fill="#E4E4E4" transform="translate(1382.315105, 207.193339) rotate(13.000000) translate(-1382.315105, -207.193339) " points="1333.21051 192.064268 1431.03469 193.443877 1431.4197 222.322411 1333.59552 220.942802"></polygon>
                            <polygon id="Rectangle-Copy-20" fill="#E4E4E4" transform="translate(4074.854385, 167.666534) rotate(26.000000) translate(-4074.854385, -167.666534) " points="4019.41147 151.967432 4129.60522 154.735769 4130.2973 183.365637 4020.10355 180.5973"></polygon>
                            <polygon id="Rectangle-Copy-21" fill="#E4E4E4" transform="translate(4439.866384, 1038.766311) rotate(-43.000000) translate(-4439.866384, -1038.766311) " points="4384.24867 1026.44336 4496.36022 1022.93885 4495.48409 1051.08926 4383.37255 1054.59378"></polygon>
                            <polygon id="Rectangle-Copy-26" fill="#E4E4E4" transform="translate(2848.097015, 793.516875) rotate(26.000000) translate(-2848.097015, -793.516875) " points="2792.6541 777.817772 2902.84785 780.586109 2903.53993 809.215977 2793.34618 806.44764"></polygon>
                        </g>
                    </g>
                    <g id="Group-4-Copy-7" transform="translate(102.040816, 4759.637188)">
                        <g id="Group-4-Copy-3">
                            <polygon id="Rectangle-Copy" fill-opacity="0.85" fill="#FF9B21" transform="translate(35.413126, 1681.755012) rotate(37.000000) translate(-35.413126, -1681.755012) " points="10.3082267 1656.22647 59.0405966 1657.7039 60.5180252 1707.28356 11.7856553 1705.80613"></polygon>
                            <polygon id="Rectangle-Copy-6" fill-opacity="0.85" fill="#FF9B21" transform="translate(990.061652, 498.081542) rotate(37.000000) translate(-990.061652, -498.081542) " points="964.956753 472.552997 1013.68912 474.030426 1015.16655 523.610087 966.434181 522.132659"></polygon>
                            <polygon id="Rectangle-Copy-25" fill-opacity="0.85" fill="#FF9B21" transform="translate(105.906419, 332.841418) rotate(37.000000) translate(-105.906419, -332.841418) " points="80.8015193 307.312873 129.533889 308.790302 131.011318 358.369963 82.2789479 356.892535"></polygon>
                            <polygon id="Rectangle-Copy-3" fill="#FF9B21" transform="translate(2221.096098, 1278.624397) rotate(37.000000) translate(-2221.096098, -1278.624397) " points="2203.16403 1260.38972 2237.97286 1261.44503 2239.02817 1296.85907 2204.21933 1295.80377"></polygon>
                            <polygon id="Rectangle-Copy-4" fill="#FF9B21" transform="translate(2343.164551, 2003.131731) rotate(37.000000) translate(-2343.164551, -2003.131731) " points="2312.08229 1971.52496 2372.41761 1973.35416 2374.24681 2034.7385 2313.91149 2032.9093"></polygon>
                            <polygon id="Rectangle-Copy-5" fill="#FF9B21" transform="translate(3371.014033, 1479.940953) rotate(37.000000) translate(-3371.014033, -1479.940953) " points="3345.90913 1454.41241 3394.6415 1455.88984 3396.11893 1505.4695 3347.38656 1503.99207"></polygon>
                            <polygon id="Rectangle-Copy-8" fill="#FF9B21" transform="translate(3872.147820, 1879.033923) rotate(37.000000) translate(-3872.147820, -1879.033923) " points="3847.04292 1853.50538 3895.77529 1854.98281 3897.25272 1904.56247 3848.52035 1903.08504"></polygon>
                            <polygon id="Rectangle-Copy-7" fill="#FF9B21" transform="translate(845.984677, 2093.257415) rotate(37.000000) translate(-845.984677, -2093.257415) " points="813.706949 2060.435 876.362853 2062.33455 878.262404 2126.07983 815.6065 2124.18028"></polygon>
                            <polygon id="Rectangle-Copy-23" fill="#FF9B21" transform="translate(3290.429121, 45.638368) rotate(37.000000) translate(-3290.429121, -45.638368) " points="3258.15139 12.8159525 3320.8073 14.7155036 3322.70685 78.4607827 3260.05094 76.5612317"></polygon>
                            <polygon id="Rectangle-Copy-24" fill="#FF9B21" transform="translate(3451.426854, 787.134966) rotate(37.000000) translate(-3451.426854, -787.134966) " points="3419.14913 754.312551 3481.80503 756.212102 3483.70458 819.957381 3421.04868 818.05783"></polygon>
                            <polygon id="Rectangle-Copy-15" fill="#FF9B21" transform="translate(1478.637738, 993.484173) rotate(37.000000) translate(-1478.637738, -993.484173) " points="1446.36001 960.661758 1509.01591 962.561309 1510.91547 1026.30659 1448.25956 1024.40704"></polygon>
                            <polygon id="Rectangle-Copy-17" fill="#FF9B21" transform="translate(4746.211434, 1653.348118) rotate(37.000000) translate(-4746.211434, -1653.348118) " points="4713.93371 1620.5257 4776.58961 1622.42525 4778.48916 1686.17053 4715.83326 1684.27098"></polygon>
                            <polygon id="Rectangle-Copy-18" fill="#FF9B21" transform="translate(4700.859960, 84.187120) rotate(37.000000) translate(-4700.859960, -84.187120) " points="4668.58223 51.3647053 4731.23814 53.2642564 4733.13769 117.009536 4670.48178 115.109985"></polygon>
                            <ellipse id="Oval" fill="#FF682B" cx="477.324263" cy="85.0340136" rx="37.414966" ry="39.6825397"></ellipse>
                            <ellipse id="Oval-Copy-8" fill="#FF682B" cx="556.689342" cy="1524.94331" rx="41.9501134" ry="44.2176871"></ellipse>
                            <ellipse id="Oval-Copy-17" fill="#FF682B" cx="2128.11791" cy="629.251701" rx="41.9501134" ry="44.2176871"></ellipse>
                            <ellipse id="Oval-Copy-11" fill="#FF682B" cx="1869.61451" cy="1726.75737" rx="41.9501134" ry="44.2176871"></ellipse>
                            <ellipse id="Oval-Copy-12" fill="#FF682B" cx="2877.55102" cy="1333.33333" rx="27.2108844" ry="29.478458"></ellipse>
                            <ellipse id="Oval-Copy-13" fill="#FF682B" cx="2931.97279" cy="419.501134" rx="27.2108844" ry="29.478458"></ellipse>
                            <ellipse id="Oval-Copy-14" fill="#FF682B" cx="4870.7483" cy="1136.05442" rx="27.2108844" ry="29.478458"></ellipse>
                            <ellipse id="Oval-Copy-15" fill="#FF682B" cx="4366.21315" cy="650.793651" rx="21.5419501" ry="22.675737"></ellipse>
                            <ellipse id="Oval-Copy-16" fill="#FF682B" cx="3787.98186" cy="1205.21542" rx="37.414966" ry="39.6825397"></ellipse>
                            <ellipse id="Oval-Copy-9" fill="#FF682B" cx="575.963719" cy="885.487528" rx="22.675737" ry="23.8095238"></ellipse>
                            <ellipse id="Oval-Copy-10" fill="#FF682B" cx="2108.84354" cy="60.0907029" rx="22.675737" ry="23.8095238"></ellipse>
                            <polygon id="Rectangle-Copy-9" fill="#E4E4E4" transform="translate(1325.421777, 1569.105485) rotate(-30.000000) translate(-1325.421777, -1569.105485) " points="1276.26246 1556.20409 1375.34169 1553.4786 1374.58109 1582.00688 1275.50186 1584.73237"></polygon>
                            <polygon id="Rectangle-Copy-10" fill-opacity="0.9" fill="#E4E4E4" transform="translate(156.709560, 791.139583) rotate(50.000000) translate(-156.709560, -791.139583) " points="93.8650475 773.806186 218.599052 777.62627 219.554073 808.472979 94.8200685 804.652895"></polygon>
                            <polygon id="Rectangle-Copy-11" fill-opacity="0.8" fill="#E4E4E4" transform="translate(685.663537, 1204.842569) rotate(-76.000000) translate(-685.663537, -1204.842569) " points="628.140466 1192.01037 743.59893 1190.36108 743.186608 1217.67477 627.728144 1219.32406"></polygon>
                            <polygon id="Rectangle-Copy-12" fill="#E4E4E4" transform="translate(3064.512931, 1959.269008) rotate(39.000000) translate(-3064.512931, -1959.269008) " points="3011.75861 1943.52236 3116.40817 1946.7439 3117.26725 1975.01565 3012.61769 1971.79412"></polygon>
                            <polygon id="Rectangle-Copy-13" fill="#E4E4E4" transform="translate(1382.315105, 207.193339) rotate(13.000000) translate(-1382.315105, -207.193339) " points="1333.21051 192.064268 1431.03469 193.443877 1431.4197 222.322411 1333.59552 220.942802"></polygon>
                            <polygon id="Rectangle-Copy-20" fill="#E4E4E4" transform="translate(4074.854385, 167.666534) rotate(26.000000) translate(-4074.854385, -167.666534) " points="4019.41147 151.967432 4129.60522 154.735769 4130.2973 183.365637 4020.10355 180.5973"></polygon>
                            <polygon id="Rectangle-Copy-21" fill="#E4E4E4" transform="translate(4439.866384, 1038.766311) rotate(-43.000000) translate(-4439.866384, -1038.766311) " points="4384.24867 1026.44336 4496.36022 1022.93885 4495.48409 1051.08926 4383.37255 1054.59378"></polygon>
                            <polygon id="Rectangle-Copy-26" fill="#E4E4E4" transform="translate(2848.097015, 793.516875) rotate(26.000000) translate(-2848.097015, -793.516875) " points="2792.6541 777.817772 2902.84785 780.586109 2903.53993 809.215977 2793.34618 806.44764"></polygon>
                        </g>
                    </g>
                </g>
            </g>
        </g>
    </g>
</svg>