<?xml version="1.0" encoding="UTF-8"?>
<svg width="2204px" height="3043px" viewBox="0 0 2204 3043" version="1.1" xmlns="http://www.w3.org/2000/svg" xmlns:xlink="http://www.w3.org/1999/xlink">
    <!-- Generator: Sketch 53.2 (72643) - https://sketchapp.com -->
    <title>Group 7</title>
    <desc>Created with Sketch.</desc>
    <g id="Page-1" stroke="none" stroke-width="1" fill="none" fill-rule="evenodd">
        <g id="Group-7">
            <g id="Group-4-Copy-5">
                <g id="Group-4-Copy-3">
                    <polygon id="Rectangle-Copy" fill-opacity="0.85" fill="#FF9B21" transform="translate(15.617189, 741.653960) rotate(37.000000) translate(-15.617189, -741.653960) " points="4.54592798 730.395872 26.0369031 731.047418 26.6884491 752.912048 5.19747399 752.260502"></polygon>
                    <polygon id="Rectangle-Copy-6" fill-opacity="0.85" fill="#FF9B21" transform="translate(436.617189, 219.653960) rotate(37.000000) translate(-436.617189, -219.653960) " points="425.545928 208.395872 447.036903 209.047418 447.688449 230.912048 426.197474 230.260502"></polygon>
                    <polygon id="Rectangle-Copy-25" fill-opacity="0.85" fill="#FF9B21" transform="translate(46.704731, 146.783065) rotate(37.000000) translate(-46.704731, -146.783065) " points="35.63347 135.524977 57.1244452 136.176523 57.7759912 158.041154 36.285016 157.389608"></polygon>
                    <polygon id="Rectangle-Copy-3" fill="#FF9B21" transform="translate(979.503379, 563.873359) rotate(37.000000) translate(-979.503379, -563.873359) " points="971.595336 555.831868 986.946032 556.297258 987.411422 571.914851 972.060726 571.449461"></polygon>
                    <polygon id="Rectangle-Copy-4" fill="#FF9B21" transform="translate(1033.335567, 883.381093) rotate(37.000000) translate(-1033.335567, -883.381093) " points="1019.62829 869.442508 1046.23617 870.249184 1047.04284 897.319679 1020.43497 896.513003"></polygon>
                    <polygon id="Rectangle-Copy-5" fill="#FF9B21" transform="translate(1486.617189, 652.653960) rotate(37.000000) translate(-1486.617189, -652.653960) " points="1475.54593 641.395872 1497.0369 642.047418 1497.68845 663.912048 1476.19747 663.260502"></polygon>
                    <polygon id="Rectangle-Copy-8" fill="#FF9B21" transform="translate(1707.617189, 828.653960) rotate(37.000000) translate(-1707.617189, -828.653960) " points="1696.54593 817.395872 1718.0369 818.047418 1718.68845 839.912048 1697.19747 839.260502"></polygon>
                    <polygon id="Rectangle-Copy-7" fill="#FF9B21" transform="translate(373.079242, 923.126520) rotate(37.000000) translate(-373.079242, -923.126520) " points="358.844765 908.651835 386.476018 909.489537 387.31372 937.601205 359.682467 936.763503"></polygon>
                    <polygon id="Rectangle-Copy-23" fill="#FF9B21" transform="translate(1451.079242, 20.126520) rotate(37.000000) translate(-1451.079242, -20.126520) " points="1436.84476 5.65183506 1464.47602 6.48953707 1465.31372 34.6012052 1437.68247 33.7635032"></polygon>
                    <polygon id="Rectangle-Copy-24" fill="#FF9B21" transform="translate(1522.079242, 347.126520) rotate(37.000000) translate(-1522.079242, -347.126520) " points="1507.84476 332.651835 1535.47602 333.489537 1536.31372 361.601205 1508.68247 360.763503"></polygon>
                    <polygon id="Rectangle-Copy-15" fill="#FF9B21" transform="translate(652.079242, 438.126520) rotate(37.000000) translate(-652.079242, -438.126520) " points="637.844765 423.651835 665.476018 424.489537 666.31372 452.601205 638.682467 451.763503"></polygon>
                    <path d="" id="Rectangle-Copy-16" fill="#FF9B21" transform="translate(1299.000000, 1068.188872) rotate(37.000000) translate(-1299.000000, -1068.188872) "></path>
                    <polygon id="Rectangle-Copy-17" fill="#FF9B21" transform="translate(2093.079242, 729.126520) rotate(37.000000) translate(-2093.079242, -729.126520) " points="2078.84476 714.651835 2106.47602 715.489537 2107.31372 743.601205 2079.68247 742.763503"></polygon>
                    <polygon id="Rectangle-Copy-18" fill="#FF9B21" transform="translate(2073.079242, 37.126520) rotate(37.000000) translate(-2073.079242, -37.126520) " points="2058.84476 22.6518351 2086.47602 23.4895371 2087.31372 51.6012052 2059.68247 50.7635032"></polygon>
                    <ellipse id="Oval" fill="#FF682B" cx="210.5" cy="37.5" rx="16.5" ry="17.5"></ellipse>
                    <ellipse id="Oval-Copy-8" fill="#FF682B" cx="245.5" cy="672.5" rx="18.5" ry="19.5"></ellipse>
                    <ellipse id="Oval-Copy-17" fill="#FF682B" cx="938.5" cy="277.5" rx="18.5" ry="19.5"></ellipse>
                    <ellipse id="Oval-Copy-11" fill="#FF682B" cx="824.5" cy="761.5" rx="18.5" ry="19.5"></ellipse>
                    <ellipse id="Oval-Copy-12" fill="#FF682B" cx="1269" cy="588" rx="12" ry="13"></ellipse>
                    <ellipse id="Oval-Copy-13" fill="#FF682B" cx="1293" cy="185" rx="12" ry="13"></ellipse>
                    <ellipse id="Oval-Copy-14" fill="#FF682B" cx="2148" cy="501" rx="12" ry="13"></ellipse>
                    <ellipse id="Oval-Copy-15" fill="#FF682B" cx="1925.5" cy="287" rx="9.5" ry="10"></ellipse>
                    <ellipse id="Oval-Copy-16" fill="#FF682B" cx="1670.5" cy="531.5" rx="16.5" ry="17.5"></ellipse>
                    <ellipse id="Oval-Copy-9" fill="#FF682B" cx="254" cy="390.5" rx="10" ry="10.5"></ellipse>
                    <ellipse id="Oval-Copy-10" fill="#FF682B" cx="930" cy="26.5" rx="10" ry="10.5"></ellipse>
                    <polygon id="Rectangle-Copy-9" fill="#E4E4E4" transform="translate(584.511004, 691.975519) rotate(-30.000000) translate(-584.511004, -691.975519) " points="562.831746 686.286003 606.525687 685.084061 606.190262 697.665035 562.49632 698.866977"></polygon>
                    <polygon id="Rectangle-Copy-10" fill-opacity="0.9" fill="#E4E4E4" transform="translate(69.108916, 348.892556) rotate(50.000000) translate(-69.108916, -348.892556) " points="41.394486 341.248528 96.402182 342.933185 96.8233462 356.536584 41.8156502 354.851927"></polygon>
                    <polygon id="Rectangle-Copy-11" fill-opacity="0.8" fill="#E4E4E4" transform="translate(302.377620, 531.335573) rotate(-76.000000) translate(-302.377620, -531.335573) " points="277.009945 525.676573 327.927128 524.949237 327.745294 536.994574 276.828112 537.721909"></polygon>
                    <polygon id="Rectangle-Copy-12" fill="#E4E4E4" transform="translate(1351.450203, 864.037632) rotate(39.000000) translate(-1351.450203, -864.037632) " points="1328.18555 857.093363 1374.336 858.514059 1374.71486 870.981902 1328.5644 869.561206"></polygon>
                    <polygon id="Rectangle-Copy-13" fill="#E4E4E4" transform="translate(609.600961, 91.372263) rotate(13.000000) translate(-609.600961, -91.372263) " points="587.945836 84.7003423 631.086298 85.3087498 631.256086 98.0441831 588.115624 97.4357756"></polygon>
                    <polygon id="Rectangle-Copy-20" fill="#E4E4E4" transform="translate(1797.010784, 73.940942) rotate(26.000000) translate(-1797.010784, -73.940942) " points="1772.56046 67.0176376 1821.1559 68.2384742 1821.46111 80.8642457 1772.86567 79.6434091"></polygon>
                    <polygon id="Rectangle-Copy-21" fill="#E4E4E4" transform="translate(1957.981076, 458.095943) rotate(-43.000000) translate(-1957.981076, -458.095943) " points="1933.45367 452.661521 1982.89486 451.116031 1982.50849 463.530365 1933.06729 465.075855"></polygon>
                    <polygon id="Rectangle-Copy-26" fill="#E4E4E4" transform="translate(1256.010784, 349.940942) rotate(26.000000) translate(-1256.010784, -349.940942) " points="1231.56046 343.017638 1280.1559 344.238474 1280.46111 356.864246 1231.86567 355.643409"></polygon>
                </g>
            </g>
            <g id="Group-4-Copy-6" transform="translate(44.000000, 1030.000000)">
                <g id="Group-4-Copy-3">
                    <polygon id="Rectangle-Copy" fill-opacity="0.85" fill="#FF9B21" transform="translate(15.617189, 741.653960) rotate(37.000000) translate(-15.617189, -741.653960) " points="4.54592798 730.395872 26.0369031 731.047418 26.6884491 752.912048 5.19747399 752.260502"></polygon>
                    <polygon id="Rectangle-Copy-6" fill-opacity="0.85" fill="#FF9B21" transform="translate(436.617189, 219.653960) rotate(37.000000) translate(-436.617189, -219.653960) " points="425.545928 208.395872 447.036903 209.047418 447.688449 230.912048 426.197474 230.260502"></polygon>
                    <polygon id="Rectangle-Copy-25" fill-opacity="0.85" fill="#FF9B21" transform="translate(46.704731, 146.783065) rotate(37.000000) translate(-46.704731, -146.783065) " points="35.63347 135.524977 57.1244452 136.176523 57.7759912 158.041154 36.285016 157.389608"></polygon>
                    <polygon id="Rectangle-Copy-3" fill="#FF9B21" transform="translate(979.503379, 563.873359) rotate(37.000000) translate(-979.503379, -563.873359) " points="971.595336 555.831868 986.946032 556.297258 987.411422 571.914851 972.060726 571.449461"></polygon>
                    <polygon id="Rectangle-Copy-4" fill="#FF9B21" transform="translate(1033.335567, 883.381093) rotate(37.000000) translate(-1033.335567, -883.381093) " points="1019.62829 869.442508 1046.23617 870.249184 1047.04284 897.319679 1020.43497 896.513003"></polygon>
                    <polygon id="Rectangle-Copy-5" fill="#FF9B21" transform="translate(1486.617189, 652.653960) rotate(37.000000) translate(-1486.617189, -652.653960) " points="1475.54593 641.395872 1497.0369 642.047418 1497.68845 663.912048 1476.19747 663.260502"></polygon>
                    <polygon id="Rectangle-Copy-8" fill="#FF9B21" transform="translate(1707.617189, 828.653960) rotate(37.000000) translate(-1707.617189, -828.653960) " points="1696.54593 817.395872 1718.0369 818.047418 1718.68845 839.912048 1697.19747 839.260502"></polygon>
                    <polygon id="Rectangle-Copy-7" fill="#FF9B21" transform="translate(373.079242, 923.126520) rotate(37.000000) translate(-373.079242, -923.126520) " points="358.844765 908.651835 386.476018 909.489537 387.31372 937.601205 359.682467 936.763503"></polygon>
                    <polygon id="Rectangle-Copy-23" fill="#FF9B21" transform="translate(1451.079242, 20.126520) rotate(37.000000) translate(-1451.079242, -20.126520) " points="1436.84476 5.65183506 1464.47602 6.48953707 1465.31372 34.6012052 1437.68247 33.7635032"></polygon>
                    <polygon id="Rectangle-Copy-24" fill="#FF9B21" transform="translate(1522.079242, 347.126520) rotate(37.000000) translate(-1522.079242, -347.126520) " points="1507.84476 332.651835 1535.47602 333.489537 1536.31372 361.601205 1508.68247 360.763503"></polygon>
                    <polygon id="Rectangle-Copy-15" fill="#FF9B21" transform="translate(652.079242, 438.126520) rotate(37.000000) translate(-652.079242, -438.126520) " points="637.844765 423.651835 665.476018 424.489537 666.31372 452.601205 638.682467 451.763503"></polygon>
                    <path d="" id="Rectangle-Copy-16" fill="#FF9B21" transform="translate(1299.000000, 1068.188872) rotate(37.000000) translate(-1299.000000, -1068.188872) "></path>
                    <polygon id="Rectangle-Copy-17" fill="#FF9B21" transform="translate(2093.079242, 729.126520) rotate(37.000000) translate(-2093.079242, -729.126520) " points="2078.84476 714.651835 2106.47602 715.489537 2107.31372 743.601205 2079.68247 742.763503"></polygon>
                    <polygon id="Rectangle-Copy-18" fill="#FF9B21" transform="translate(2073.079242, 37.126520) rotate(37.000000) translate(-2073.079242, -37.126520) " points="2058.84476 22.6518351 2086.47602 23.4895371 2087.31372 51.6012052 2059.68247 50.7635032"></polygon>
                    <ellipse id="Oval" fill="#FF682B" cx="210.5" cy="37.5" rx="16.5" ry="17.5"></ellipse>
                    <ellipse id="Oval-Copy-8" fill="#FF682B" cx="245.5" cy="672.5" rx="18.5" ry="19.5"></ellipse>
                    <ellipse id="Oval-Copy-17" fill="#FF682B" cx="938.5" cy="277.5" rx="18.5" ry="19.5"></ellipse>
                    <ellipse id="Oval-Copy-11" fill="#FF682B" cx="824.5" cy="761.5" rx="18.5" ry="19.5"></ellipse>
                    <ellipse id="Oval-Copy-12" fill="#FF682B" cx="1269" cy="588" rx="12" ry="13"></ellipse>
                    <ellipse id="Oval-Copy-13" fill="#FF682B" cx="1293" cy="185" rx="12" ry="13"></ellipse>
                    <ellipse id="Oval-Copy-14" fill="#FF682B" cx="2148" cy="501" rx="12" ry="13"></ellipse>
                    <ellipse id="Oval-Copy-15" fill="#FF682B" cx="1925.5" cy="287" rx="9.5" ry="10"></ellipse>
                    <ellipse id="Oval-Copy-16" fill="#FF682B" cx="1670.5" cy="531.5" rx="16.5" ry="17.5"></ellipse>
                    <ellipse id="Oval-Copy-9" fill="#FF682B" cx="254" cy="390.5" rx="10" ry="10.5"></ellipse>
                    <ellipse id="Oval-Copy-10" fill="#FF682B" cx="930" cy="26.5" rx="10" ry="10.5"></ellipse>
                    <polygon id="Rectangle-Copy-9" fill="#E4E4E4" transform="translate(584.511004, 691.975519) rotate(-30.000000) translate(-584.511004, -691.975519) " points="562.831746 686.286003 606.525687 685.084061 606.190262 697.665035 562.49632 698.866977"></polygon>
                    <polygon id="Rectangle-Copy-10" fill-opacity="0.9" fill="#E4E4E4" transform="translate(69.108916, 348.892556) rotate(50.000000) translate(-69.108916, -348.892556) " points="41.394486 341.248528 96.402182 342.933185 96.8233462 356.536584 41.8156502 354.851927"></polygon>
                    <polygon id="Rectangle-Copy-11" fill-opacity="0.8" fill="#E4E4E4" transform="translate(302.377620, 531.335573) rotate(-76.000000) translate(-302.377620, -531.335573) " points="277.009945 525.676573 327.927128 524.949237 327.745294 536.994574 276.828112 537.721909"></polygon>
                    <polygon id="Rectangle-Copy-12" fill="#E4E4E4" transform="translate(1351.450203, 864.037632) rotate(39.000000) translate(-1351.450203, -864.037632) " points="1328.18555 857.093363 1374.336 858.514059 1374.71486 870.981902 1328.5644 869.561206"></polygon>
                    <polygon id="Rectangle-Copy-13" fill="#E4E4E4" transform="translate(609.600961, 91.372263) rotate(13.000000) translate(-609.600961, -91.372263) " points="587.945836 84.7003423 631.086298 85.3087498 631.256086 98.0441831 588.115624 97.4357756"></polygon>
                    <polygon id="Rectangle-Copy-20" fill="#E4E4E4" transform="translate(1797.010784, 73.940942) rotate(26.000000) translate(-1797.010784, -73.940942) " points="1772.56046 67.0176376 1821.1559 68.2384742 1821.46111 80.8642457 1772.86567 79.6434091"></polygon>
                    <polygon id="Rectangle-Copy-21" fill="#E4E4E4" transform="translate(1957.981076, 458.095943) rotate(-43.000000) translate(-1957.981076, -458.095943) " points="1933.45367 452.661521 1982.89486 451.116031 1982.50849 463.530365 1933.06729 465.075855"></polygon>
                    <polygon id="Rectangle-Copy-26" fill="#E4E4E4" transform="translate(1256.010784, 349.940942) rotate(26.000000) translate(-1256.010784, -349.940942) " points="1231.56046 343.017638 1280.1559 344.238474 1280.46111 356.864246 1231.86567 355.643409"></polygon>
                </g>
            </g>
            <g id="Group-4-Copy-7" transform="translate(44.000000, 2099.000000)">
                <g id="Group-4-Copy-3">
                    <polygon id="Rectangle-Copy" fill-opacity="0.85" fill="#FF9B21" transform="translate(15.617189, 741.653960) rotate(37.000000) translate(-15.617189, -741.653960) " points="4.54592798 730.395872 26.0369031 731.047418 26.6884491 752.912048 5.19747399 752.260502"></polygon>
                    <polygon id="Rectangle-Copy-6" fill-opacity="0.85" fill="#FF9B21" transform="translate(436.617189, 219.653960) rotate(37.000000) translate(-436.617189, -219.653960) " points="425.545928 208.395872 447.036903 209.047418 447.688449 230.912048 426.197474 230.260502"></polygon>
                    <polygon id="Rectangle-Copy-25" fill-opacity="0.85" fill="#FF9B21" transform="translate(46.704731, 146.783065) rotate(37.000000) translate(-46.704731, -146.783065) " points="35.63347 135.524977 57.1244452 136.176523 57.7759912 158.041154 36.285016 157.389608"></polygon>
                    <polygon id="Rectangle-Copy-3" fill="#FF9B21" transform="translate(979.503379, 563.873359) rotate(37.000000) translate(-979.503379, -563.873359) " points="971.595336 555.831868 986.946032 556.297258 987.411422 571.914851 972.060726 571.449461"></polygon>
                    <polygon id="Rectangle-Copy-4" fill="#FF9B21" transform="translate(1033.335567, 883.381093) rotate(37.000000) translate(-1033.335567, -883.381093) " points="1019.62829 869.442508 1046.23617 870.249184 1047.04284 897.319679 1020.43497 896.513003"></polygon>
                    <polygon id="Rectangle-Copy-5" fill="#FF9B21" transform="translate(1486.617189, 652.653960) rotate(37.000000) translate(-1486.617189, -652.653960) " points="1475.54593 641.395872 1497.0369 642.047418 1497.68845 663.912048 1476.19747 663.260502"></polygon>
                    <polygon id="Rectangle-Copy-8" fill="#FF9B21" transform="translate(1707.617189, 828.653960) rotate(37.000000) translate(-1707.617189, -828.653960) " points="1696.54593 817.395872 1718.0369 818.047418 1718.68845 839.912048 1697.19747 839.260502"></polygon>
                    <polygon id="Rectangle-Copy-7" fill="#FF9B21" transform="translate(373.079242, 923.126520) rotate(37.000000) translate(-373.079242, -923.126520) " points="358.844765 908.651835 386.476018 909.489537 387.31372 937.601205 359.682467 936.763503"></polygon>
                    <polygon id="Rectangle-Copy-23" fill="#FF9B21" transform="translate(1451.079242, 20.126520) rotate(37.000000) translate(-1451.079242, -20.126520) " points="1436.84476 5.65183506 1464.47602 6.48953707 1465.31372 34.6012052 1437.68247 33.7635032"></polygon>
                    <polygon id="Rectangle-Copy-24" fill="#FF9B21" transform="translate(1522.079242, 347.126520) rotate(37.000000) translate(-1522.079242, -347.126520) " points="1507.84476 332.651835 1535.47602 333.489537 1536.31372 361.601205 1508.68247 360.763503"></polygon>
                    <polygon id="Rectangle-Copy-15" fill="#FF9B21" transform="translate(652.079242, 438.126520) rotate(37.000000) translate(-652.079242, -438.126520) " points="637.844765 423.651835 665.476018 424.489537 666.31372 452.601205 638.682467 451.763503"></polygon>
                    <polygon id="Rectangle-Copy-17" fill="#FF9B21" transform="translate(2093.079242, 729.126520) rotate(37.000000) translate(-2093.079242, -729.126520) " points="2078.84476 714.651835 2106.47602 715.489537 2107.31372 743.601205 2079.68247 742.763503"></polygon>
                    <polygon id="Rectangle-Copy-18" fill="#FF9B21" transform="translate(2073.079242, 37.126520) rotate(37.000000) translate(-2073.079242, -37.126520) " points="2058.84476 22.6518351 2086.47602 23.4895371 2087.31372 51.6012052 2059.68247 50.7635032"></polygon>
                    <ellipse id="Oval" fill="#FF682B" cx="210.5" cy="37.5" rx="16.5" ry="17.5"></ellipse>
                    <ellipse id="Oval-Copy-8" fill="#FF682B" cx="245.5" cy="672.5" rx="18.5" ry="19.5"></ellipse>
                    <ellipse id="Oval-Copy-17" fill="#FF682B" cx="938.5" cy="277.5" rx="18.5" ry="19.5"></ellipse>
                    <ellipse id="Oval-Copy-11" fill="#FF682B" cx="824.5" cy="761.5" rx="18.5" ry="19.5"></ellipse>
                    <ellipse id="Oval-Copy-12" fill="#FF682B" cx="1269" cy="588" rx="12" ry="13"></ellipse>
                    <ellipse id="Oval-Copy-13" fill="#FF682B" cx="1293" cy="185" rx="12" ry="13"></ellipse>
                    <ellipse id="Oval-Copy-14" fill="#FF682B" cx="2148" cy="501" rx="12" ry="13"></ellipse>
                    <ellipse id="Oval-Copy-15" fill="#FF682B" cx="1925.5" cy="287" rx="9.5" ry="10"></ellipse>
                    <ellipse id="Oval-Copy-16" fill="#FF682B" cx="1670.5" cy="531.5" rx="16.5" ry="17.5"></ellipse>
                    <ellipse id="Oval-Copy-9" fill="#FF682B" cx="254" cy="390.5" rx="10" ry="10.5"></ellipse>
                    <ellipse id="Oval-Copy-10" fill="#FF682B" cx="930" cy="26.5" rx="10" ry="10.5"></ellipse>
                    <polygon id="Rectangle-Copy-9" fill="#E4E4E4" transform="translate(584.511004, 691.975519) rotate(-30.000000) translate(-584.511004, -691.975519) " points="562.831746 686.286003 606.525687 685.084061 606.190262 697.665035 562.49632 698.866977"></polygon>
                    <polygon id="Rectangle-Copy-10" fill-opacity="0.9" fill="#E4E4E4" transform="translate(69.108916, 348.892556) rotate(50.000000) translate(-69.108916, -348.892556) " points="41.394486 341.248528 96.402182 342.933185 96.8233462 356.536584 41.8156502 354.851927"></polygon>
                    <polygon id="Rectangle-Copy-11" fill-opacity="0.8" fill="#E4E4E4" transform="translate(302.377620, 531.335573) rotate(-76.000000) translate(-302.377620, -531.335573) " points="277.009945 525.676573 327.927128 524.949237 327.745294 536.994574 276.828112 537.721909"></polygon>
                    <polygon id="Rectangle-Copy-12" fill="#E4E4E4" transform="translate(1351.450203, 864.037632) rotate(39.000000) translate(-1351.450203, -864.037632) " points="1328.18555 857.093363 1374.336 858.514059 1374.71486 870.981902 1328.5644 869.561206"></polygon>
                    <polygon id="Rectangle-Copy-13" fill="#E4E4E4" transform="translate(609.600961, 91.372263) rotate(13.000000) translate(-609.600961, -91.372263) " points="587.945836 84.7003423 631.086298 85.3087498 631.256086 98.0441831 588.115624 97.4357756"></polygon>
                    <polygon id="Rectangle-Copy-20" fill="#E4E4E4" transform="translate(1797.010784, 73.940942) rotate(26.000000) translate(-1797.010784, -73.940942) " points="1772.56046 67.0176376 1821.1559 68.2384742 1821.46111 80.8642457 1772.86567 79.6434091"></polygon>
                    <polygon id="Rectangle-Copy-21" fill="#E4E4E4" transform="translate(1957.981076, 458.095943) rotate(-43.000000) translate(-1957.981076, -458.095943) " points="1933.45367 452.661521 1982.89486 451.116031 1982.50849 463.530365 1933.06729 465.075855"></polygon>
                    <polygon id="Rectangle-Copy-26" fill="#E4E4E4" transform="translate(1256.010784, 349.940942) rotate(26.000000) translate(-1256.010784, -349.940942) " points="1231.56046 343.017638 1280.1559 344.238474 1280.46111 356.864246 1231.86567 355.643409"></polygon>
                </g>
            </g>
        </g>
    </g>
</svg>