<?xml version="1.0" encoding="UTF-8"?>
<svg width="259px" height="372px" viewBox="0 0 259 372" version="1.1" xmlns="http://www.w3.org/2000/svg" xmlns:xlink="http://www.w3.org/1999/xlink">
    <!-- Generator: Sketch 53.2 (72643) - https://sketchapp.com -->
    <title>Standing Copy 2</title>
    <desc>Created with Sketch.</desc>
    <g id="Page-1" stroke="none" stroke-width="1" fill="none" fill-rule="evenodd">
        <g id="Standing-Copy-2" transform="translate(-1.000000, 0.000000)" fill-rule="nonzero">
            <g id="Head/Front/Long" transform="translate(113.000000, 0.000000)">
                <path d="M53.9728009,16.8947269 C57.1388832,28.627772 61.2648529,55.0009139 57.0545975,59.1379007 L30.4181506,59.1379007 C30.4154306,59.0903733 30.4127637,59.0429667 30.4101499,58.9956806 C20.5375323,57.896933 12.8589744,49.4790028 12.8589744,39.2574816 L12.8589744,19.8596672 C12.8589744,8.89147588 21.7003256,0 32.606685,0 L34.4436813,0 C44.3481203,0 52.5495308,7.33287036 53.9728009,16.8947269 Z" id="Hair-Back" fill="#57331F"></path>
                <g id="Head" transform="translate(15.614469, 3.694822)" fill="#D4A181">
                    <path d="M7.58888343,31.8587181 C3.35652696,26.8626254 0.491979577,20.739845 0.970647124,13.8790937 C2.34982162,-5.88864125 29.7120661,-1.53999144 35.0345892,8.43706362 C40.3571122,18.4141187 39.7246582,43.7217462 32.8457713,45.5049243 C30.1024807,46.2160532 24.2584562,44.4740721 18.3106027,40.8687066 L22.043956,67.4304979 L0,67.4304979 L7.58888343,31.8587181 Z" id="Path"></path>
                </g>
                <path d="M29.1622843,32.2140743 C30.1779389,43.1858531 29.7710373,55.7153864 26.744158,58.6895904 L0.107711087,58.6895904 C-1.37639256,32.7578142 12.9666854,42.7997588 12.9666854,18.384318 C13.8609208,17.5056447 14.7059007,16.6359587 15.5420158,15.885941 L15.5124026,15.1678905 C20.1248008,5.67176715 25.9764122,0.923705451 33.0672368,0.923705451 C43.7034738,0.923705451 47.0607098,5.90092813 49.9191639,10.126662 C47.7816732,17.5025329 39.4866315,18.5962106 32.1159687,23.1937929 C31.2471735,22.4839183 30.1393375,22.0584677 28.9326923,22.0584677 C26.1426934,22.0584677 23.8809524,24.3330313 23.8809524,27.1388477 C23.8809524,29.9446641 26.1426934,32.2192277 28.9326923,32.2192277 C29.0096369,32.2192277 29.0861797,32.2174977 29.1622843,32.2140743 Z" id="Hair-Front" fill="#57331F"></path>
            </g>
            <g id="Bottom/Standing/Skirt" transform="translate(0.000000, 144.000000)">
                <path d="M92.3186372,95.956333 C114.781533,102.201988 134.161841,105.324816 150.45956,105.324816 C166.75728,105.324816 181.895355,100.515717 195.873787,90.8975177 C173.8918,84.4869206 155.788655,81.281622 141.56435,81.281622 C127.340046,81.281622 110.924809,86.1731924 92.3186372,95.956333 Z" id="Skirt-Shadow" fill="#1F28CF"></path>
                <path d="M169.905294,114.327211 C169.688699,114.003526 169.505783,113.651422 169.360698,113.27001 C166.358141,105.376606 118.264558,20.2225384 113.473263,4.65409475 L167.619852,4.65409475 C171.262742,16.4910023 187.659033,90.7732403 189.966531,105.593641 C197.247111,128.97122 212.237099,204.682661 214.150694,209.927718 C216.163764,215.445429 204.836889,221.193458 201.818544,214.410116 C197.015846,203.616674 185.572456,173.751414 180.477188,155.515895 C175.700386,138.420134 171.810793,123.039839 169.905294,114.327211 Z" id="Leg" fill="#D4A181"></path>
                <path d="M125.605862,124.723778 C103.618266,130.248075 23.192279,140.235027 17.6730956,141.801455 C11.9955778,143.412821 7.01748093,131.779556 14.0351996,129.259594 C25.201575,125.249908 55.9699933,115.985358 74.6249966,112.204679 C89.6299516,109.163729 103.322157,106.682317 112.514743,105.22923 C111.735968,79.560298 108.175991,17.9587978 110.50936,4.65409475 L158.419003,4.65409475 C156.181459,17.4124104 137.266519,110.504698 133.750908,119.822973 C132.635225,123.149659 129.30626,124.61981 125.605862,124.723778 L125.605862,124.723778 Z" id="Leg" fill="#D4A181"></path>
                <g id="Accessories/Shoe/Flat-Sneaker" transform="translate(15.045168, 152.249048) rotate(80.000000) translate(-15.045168, -152.249048) translate(-12.454832, 142.249048)" fill="#E4E4E4">
                    <path d="M1.5713516,5.95903237 C0.523783866,8.73891078 0,10.8189022 0,12.1990067 C0,13.8775397 0.281298722,16.3269368 0.843896175,19.547198 C2.80272383,19.547198 20.4070377,19.547198 53.656838,19.547198 C55.0292592,15.0369215 54.2370181,12.6019683 51.2801148,12.2423386 C48.3232115,11.8827088 45.8668617,11.5579919 43.9110654,11.2681878 L19.3641162,0.3899047 C18.8917842,0.180584834 18.3381842,0.3915287 18.1276162,0.861060865 C18.124014,0.869093275 18.1205264,0.877176041 18.1171546,0.885306744 L16.5392956,4.69011279 C13.8019765,5.95971 11.5776206,6.59450852 9.86622778,6.59450852 C8.47576182,6.59450852 6.55551645,6.03627284 4.1054918,4.91980158 L4.10549692,4.91979051 C3.1652876,4.49133901 2.05369761,4.90168254 1.62269118,5.8363185 C1.60411417,5.87660267 1.58699007,5.91753339 1.5713516,5.95903237 Z" id="shoe"></path>
                </g>
                <g id="Accessories/Shoe/Flat-Sneaker" transform="translate(196.810156, 207.572626)" fill="#E4E4E4">
                    <path d="M1.5713516,5.95903237 C0.523783866,8.73891078 0,10.8189022 0,12.1990067 C0,13.8775397 0.281298722,16.3269368 0.843896175,19.547198 C2.80272383,19.547198 20.4070377,19.547198 53.656838,19.547198 C55.0292592,15.0369215 54.2370181,12.6019683 51.2801148,12.2423386 C48.3232115,11.8827088 45.8668617,11.5579919 43.9110654,11.2681878 L19.3641162,0.3899047 C18.8917842,0.180584834 18.3381842,0.3915287 18.1276162,0.861060865 C18.124014,0.869093275 18.1205264,0.877176041 18.1171546,0.885306744 L16.5392956,4.69011279 C13.8019765,5.95971 11.5776206,6.59450852 9.86622778,6.59450852 C8.47576182,6.59450852 6.55551645,6.03627284 4.1054918,4.91980158 L4.10549692,4.91979051 C3.1652876,4.49133901 2.05369761,4.90168254 1.62269118,5.8363185 C1.60411417,5.87660267 1.58699007,5.91753339 1.5713516,5.95903237 Z" id="shoe"></path>
                </g>
                <path d="M110.664154,4.65409475 C131.776328,-1.35037542 151.752214,-1.35037542 170.591808,4.65409475 C177.146395,34.3820954 193.073049,46.1811619 195.873787,91.7591322 C164.037221,107.4842 124.709698,80.5441893 91.9367621,95.8792955 C82.5730662,74.429314 95.6822405,22.7720371 110.664154,4.65409475 Z" id="Skirt" fill="#FF682B"></path>
            </g>
            <g id="Body/Long-Sleeve" transform="translate(38.000000, 51.000000)">
                <path d="M162.302521,60.8994813 L199.131086,55.8776193 C206.498293,51.7812081 213.275767,49.0080095 219.463505,47.5580232 C221.2048,47.5071998 223.974863,48.1399902 219.848236,51.5790239 C215.721608,55.0180576 211.534562,58.8223471 212.269802,60.6576993 C213.005042,62.4930516 216.842754,61.8101776 217.478511,64.6331055 C217.902349,66.5150573 211.673977,66.8208557 198.793393,65.5505008 L168.910168,77.3939032 L162.302521,60.8994813 Z M46.6104782,69.4211035 L67.0357764,69.4977325 C44.6388825,119.881916 32.9607946,146.262275 32.0015128,148.638811 C29.8431285,153.986018 34.4105599,162.12972 36.3637748,166.506085 C30.0022188,169.351726 30.6800494,158.813156 22.6551176,162.545372 C15.3303321,165.951966 9.758386,172.124488 1.29565468,166.904494 C0.255211573,166.262727 -0.884944515,163.846356 1.86981683,161.95809 C8.73293181,157.253732 18.6230964,149.020256 19.9594134,146.310144 C21.7817204,142.614422 30.6654086,116.984742 46.6104782,69.4211035 Z" id="Skin" fill="#D4A181"></path>
                <path d="M98.3843742,9.01759392 L114.408681,8.68473185 C121.436857,43.8268875 144.769596,64.3711169 191.955752,52.5967368 L202.310868,97.7378814 C158.093262,107.428627 117.304961,92.9609695 105.026697,45.2018224 C101.848242,32.8384879 99.0629336,19.9263235 98.3843742,9.01759392 Z" id="Clothes-Back" fill="#FF9B21" transform="translate(150.347621, 54.634143) rotate(5.000000) translate(-150.347621, -54.634143) "></path>
                <path d="M94.6679049,0.014862943 L118.898353,5.56236189 C118.898353,47.2237312 132.173973,73.804373 138.983193,104.435146 L73.5432404,104.435146 C72.6214044,115.019368 72.055313,125.898028 71.7603251,137.07113 L22.7611896,137.07113 C33.8646685,78.0130202 57.3003559,32.3226436 93.0682513,0 L94.6551605,0 L94.6679049,0.014862943 Z" id="Clothes" fill="#FF9B21"></path>
                <path d="M83.8679183,44.9996586 C82.1814739,70.9604452 83.1733205,90.7722744 86.8434571,104.435146 L73.5432404,104.435146 C75.369395,83.4678346 78.5916164,63.6560087 83.8679155,44.9996686 L83.8679183,44.9996586 Z" id="Shade" fill-opacity="0.1" fill="#000000"></path>
            </g>
        </g>
    </g>
</svg>